<?xml version="1.0" encoding="UTF-8" standalone="no"?> <!-- Created with Vectornator for iOS (http://vectornator.io/) --><!DOCTYPE svg PUBLIC "-//W3C//DTD SVG 1.1//EN" "http://www.w3.org/Graphics/SVG/1.1/DTD/svg11.dtd">
<svg height="100%" style="fill-rule:evenodd;clip-rule:evenodd;stroke-linecap:round;stroke-linejoin:round;" xmlns:xlink="http://www.w3.org/1999/xlink" xmlns="http://www.w3.org/2000/svg" xml:space="preserve" width="100%" xmlns:vectornator="http://vectornator.io" version="1.1" viewBox="0 0 442.477 134.565">
<metadata>
<vectornator:setting key="RulersVisible" value="1"/>
<vectornator:setting key="Units" value="Points"/>
<vectornator:setting key="DynamicGuides" value="1"/>
<vectornator:setting key="GuidesVisible" value="1"/>
<vectornator:setting key="CMYKEnabledKey" value="0"/>
<vectornator:setting key="SnapToGuides" value="1"/>
<vectornator:setting key="GridSpacing" value="36"/>
</metadata>
<defs>
<path d="M0+0L442.969+0L442.969+135L0+135L0+0Z" id="Mask"/>
<path d="M0+135L443+135L443+0L0+0L0+135Z" id="Mask_2"/>
<path d="M0+0L442.969+0L442.969+135L0+135L0+0Z" id="Mask_3"/>
<path d="M0+135L134+135L134+0L0+0L0+135Z" id="Mask_4"/>
<path d="M0+0L133.969+0L133.969+135L0+135L0+0Z" id="Mask_5"/>
<path d="M0+135L134+135L134+0L0+0L0+135Z" id="Mask_6"/>
<path d="M0+0L133.059+0L133.059+134.637L0+134.637L0+0Z" id="Mask_7"/>
<path d="M0+135L133+135L133+0L0+0L0+135Z" id="Mask_8"/>
<path d="M0+0L132.969+0L132.969+135L0+135L0+0Z" id="Mask_9"/>
<path d="M0+135L133+135L133+0L0+0L0+135Z" id="Mask_10"/>
</defs>
<g id="Untitled" vectornator:layerName="Untitled">
<g opacity="1">
<path d="M126.085+113.942C128.124+113.942+129.952+115.005+131.569+117.13L131.663+117.669C131.663+118.591+130.417+119.052+127.925+119.052C127.635+119.052+127.116+118.747+126.366+118.138L126.014+118.044C123.858+118.653+122.147+119.814+120.882+121.524C120.397+122.532+120.155+123.169+120.155+123.435L120.155+123.716C120.155+124.013+120.612+124.161+121.526+124.161L122.253+124.161C124.214+124.161+127.745+123.583+132.846+122.427C132.846+122.333+133.608+122.212+135.132+122.064L135.319+122.333L135.319+122.427C135.319+123.349+132.186+124.872+125.921+126.997C123.944+127.607+122.389+127.911+121.257+127.911L120.155+127.911C117.233+127.528+115.772+126.161+115.772+123.81L115.772+123.528C115.772+121.2+116.96+118.884+119.335+116.579C121.952+114.821+124.202+113.942+126.085+113.942Z" opacity="1" fill="#000000"/>
<path d="M146.159+113.778C149.417+114.31+151.046+115.204+151.046+116.462C150.921+122.556+150.565+125.603+149.979+125.603L149.721+125.896L149.475+125.896C148.483+125.732+147.987+124.896+147.987+123.388L147.741+123.2L147.319+123.2L145.081+125.989C143.76+127.271+142.409+127.911+141.026+127.911C138.667+127.911+136.956+126.505+135.893+123.692L135.811+123.095C135.811+121.36+137.8+118.829+141.776+115.501C143.464+114.353+144.925+113.778+146.159+113.778ZM139.339+123.224C139.339+123.989+139.671+124.372+140.335+124.372L140.581+124.372C143.167+124.372+145.593+121.81+147.858+116.685L147.858+116.485L147.612+116.392C145.768+116.595+143.343+118.29+140.335+121.478C139.671+122.384+139.339+122.966+139.339+123.224Z" opacity="1" fill="#000000"/>
<path d="M159.835+106.759L160.01+106.759C161.643+107.978+162.51+108.86+162.612+109.407C162.581+110.907+162.378+113.044+162.003+115.817L162.003+116.31C163.026+116.692+163.987+117.134+164.885+117.634C166.089+118.446+166.714+118.974+166.76+119.216L166.69+119.298L166.514+119.298L164.803+119.134L164.452+119.134C163.374+119.134+162.311+119.411+161.264+119.966C161.491+125.232+161.233+127.864+160.491+127.864C160.186+128.2+159.839+128.392+159.448+128.439L159.19+128.439C159.034+128.439+158.843+128.189+158.616+127.689C158.475+124.681+158.241+122.274+157.913+120.47L157.69+120.212L155.968+120.47L155.534+120.47C154.643+120.47+153.741+120.22+152.827+119.72C152.444+117.618+152.522+116.567+153.061+116.567L153.214+116.567C154.792+116.778+155.995+116.884+156.823+116.884L156.999+116.884C157.811+116.884+158.21+116.165+158.194+114.728C158.428+113.446+158.542+111.509+158.534+108.915C158.878+107.478+159.311+106.759+159.835+106.759Z" opacity="1" fill="#000000"/>
<path d="M178.55+113.778C181.807+114.31+183.436+115.204+183.436+116.462C183.311+122.556+182.956+125.603+182.37+125.603L182.112+125.896L181.866+125.896C180.874+125.732+180.378+124.896+180.378+123.388L180.132+123.2L179.71+123.2L177.471+125.989C176.151+127.271+174.8+127.911+173.417+127.911C171.057+127.911+169.346+126.505+168.284+123.692L168.202+123.095C168.202+121.36+170.19+118.829+174.167+115.501C175.854+114.353+177.315+113.778+178.55+113.778ZM171.729+123.224C171.729+123.989+172.061+124.372+172.725+124.372L172.971+124.372C175.557+124.372+177.983+121.81+180.249+116.685L180.249+116.485L180.003+116.392C178.159+116.595+175.733+118.29+172.725+121.478C172.061+122.384+171.729+122.966+171.729+123.224Z" opacity="1" fill="#000000"/>
<path d="M197.745+113.673C199.065+113.86+200.374+115.786+201.671+119.45L201.893+120.739L202.046+122.403C202.303+124.794+201.694+126.31+200.218+126.95L199.596+127.138C199.034+127.06+198.596+126.036+198.284+124.067L198.214+123.353L197.979+120.317L197.803+120.282C196.468+121.939+195.663+123.978+195.389+126.399C194.718+127.126+194.003+127.435+193.245+127.325C191.737+127.122+190.835+125.669+190.538+122.966C190.374+121.286+190.175+120.427+189.94+120.388C189.456+120.325+189.167+122.493+189.073+126.892C188.745+127.704+187.725+128.232+186.014+128.474L185.921+128.474C185.436+128.388+185.124+127.657+184.983+126.282C184.983+120.579+185.487+116.298+186.495+113.439C186.721+113.103+186.952+112.954+187.186+112.993C187.538+113.564+187.76+114.278+187.854+115.138C188.104+115.185+188.76+114.872+189.823+114.2L189.999+114.212C190.577+114.29+191.21+115.208+191.897+116.966C192.655+119.286+193.143+120.548+193.362+120.751C193.448+120.751+193.749+119.603+194.264+117.306C195.35+114.79+196.514+113.626+197.757+113.814L197.745+113.673Z" opacity="1" fill="#000000"/>
<path d="M214.01+113.778C217.268+114.31+218.897+115.204+218.897+116.462C218.772+122.556+218.417+125.603+217.831+125.603L217.573+125.896L217.327+125.896C216.335+125.732+215.839+124.896+215.839+123.388L215.593+123.2L215.171+123.2L212.932+125.989C211.612+127.271+210.26+127.911+208.878+127.911C206.518+127.911+204.807+126.505+203.745+123.692L203.663+123.095C203.663+121.36+205.651+118.829+209.628+115.501C211.315+114.353+212.776+113.778+214.01+113.778ZM207.19+123.224C207.19+123.989+207.522+124.372+208.186+124.372L208.432+124.372C211.018+124.372+213.444+121.81+215.71+116.685L215.71+116.485L215.464+116.392C213.62+116.595+211.194+118.29+208.186+121.478C207.522+122.384+207.19+122.966+207.19+123.224Z" opacity="1" fill="#000000"/>
<path d="M222.296+112.466C223.147+112.942+223.635+113.478+223.76+114.071L223.971+115.067L224.1+115.067L226.925+114.317C229.589+114.317+231.616+115.431+233.007+117.657C233.319+118.079+233.522+118.493+233.616+118.899L233.651+119.017L233.464+119.263L230.499+117.657L229.655+117.54C226.96+117.54+225.772+120.876+226.093+127.548C225.772+127.79+225.151+127.911+224.229+127.911C222.401+127.911+221.389+127.458+221.194+126.552L221.1+126.189C221.905+122.806+221.956+119.47+221.253+116.181L221.007+115.067C220.796+114.067+221.225+113.2+222.296+112.466Z" opacity="1" fill="#000000"/>
<path d="M245.604+113.778C248.862+114.31+250.491+115.204+250.491+116.462C250.366+122.556+250.01+125.603+249.425+125.603L249.167+125.896L248.921+125.896C247.928+125.732+247.432+124.896+247.432+123.388L247.186+123.2L246.764+123.2L244.526+125.989C243.206+127.271+241.854+127.911+240.471+127.911C238.112+127.911+236.401+126.505+235.339+123.692L235.257+123.095C235.257+121.36+237.245+118.829+241.221+115.501C242.909+114.353+244.37+113.778+245.604+113.778ZM238.784+123.224C238.784+123.989+239.116+124.372+239.78+124.372L240.026+124.372C242.612+124.372+245.038+121.81+247.303+116.685L247.303+116.485L247.057+116.392C245.214+116.595+242.788+118.29+239.78+121.478C239.116+122.384+238.784+122.966+238.784+123.224Z" opacity="1" fill="#000000"/>
<path d="M255.624+112.196C256.663+112.196+257.272+112.907+257.452+114.329L257.452+116.146L257.874+116.579L258.026+116.579C258.651+116.579+260.061+115.868+262.257+114.446L262.69+114.446C264.05+114.446+265.51+116.38+267.073+120.247L267.073+120.681L266.792+123.071L267.624+126.47C267.624+127.321+266.635+127.747+264.659+127.747C263.62+127.622+263.1+127.103+263.1+126.189L263.241+124.079C263.178+121.157+262.948+119.696+262.55+119.696L262.409+119.696C260.557+122.415+259.19+124.251+258.307+125.204C256.44+127.087+254.932+128.028+253.784+128.028C252.745+127.692+252.225+127.126+252.225+126.329C253.171+123.368+253.643+120.399+253.643+117.423C253.643+116.767+253.452+115.774+253.069+114.446C253.069+113.064+253.921+112.314+255.624+112.196Z" opacity="1" fill="#000000"/>
<path d="M275.71+112.724C277.499+113.419+278.393+114.591+278.393+116.239C278.393+116.63+277.538+117.212+275.827+117.985C273.757+119.157+272.721+120.017+272.721+120.564L272.721+120.681C272.721+121.009+274.108+121.091+276.882+120.927C278.913+121.747+279.928+122.599+279.928+123.482C279.928+125.466+277.315+127.028+272.089+128.169L271.268+128.169C270.409+128.083+269.979+127.849+269.979+127.466C270.557+126.614+272.007+125.829+274.327+125.11L274.327+124.993L269.979+122.544C269.354+121.849+269.042+121.228+269.042+120.681L269.042+120.212C269.042+118.939+270.678+117.028+273.952+114.482C274.983+113.31+275.569+112.724+275.71+112.724Z" opacity="1" fill="#000000"/>
<path d="M304.104+106.149C306.159+107.11+307.346+108.403+307.667+110.028C307.589+112.091+307.831+115.876+308.393+121.384C307.893+122.087+307.854+123.524+308.276+125.696C308.292+127.837+307.964+128.974+307.292+129.107C305.776+129.388+304.76+128.204+304.245+125.556L303.893+125.614C303.948+125.935+302.948+126.431+300.893+127.103C299.526+127.368+297.987+127.146+296.276+126.435C294.37+125.107+293.319+123.923+293.124+122.884C292.718+120.798+294.928+118.216+299.757+115.138L301.421+114.54L301.749+114.482C302.085+114.411+302.667+114.56+303.495+114.927C303.839+114.864+303.788+112.466+303.343+107.732C303.241+107.232+303.495+106.704+304.104+106.149ZM296.85+122.696C296.928+123.11+297.346+123.247+298.104+123.107C302.159+122.107+304.132+121.337+304.022+120.798L304.069+119.755L303.999+119.368C303.772+118.196+303.128+117.716+302.065+117.927C300.557+118.216+298.917+119.482+297.143+121.724L296.85+122.696Z" opacity="1" fill="#000000"/>
<path d="M317.639+113.86L317.874+113.86C319.1+113.86+320.487+114.552+322.034+115.935C323.542+117.388+324.448+118.63+324.753+119.661C324.409+120.607+322.628+121.079+319.409+121.079C315.862+121.079+313.964+121.302+313.714+121.747L313.714+121.853C314.206+123.681+315.3+124.595+316.995+124.595L317.311+124.595C318.358+124.595+320.589+123.899+324.003+122.509L324.542+122.509L324.647+122.837C323.913+124.446+322.202+125.798+319.514+126.892C318.608+127.548+317.221+127.876+315.354+127.876C314.05+127.626+312.733+126.896+311.405+125.685C310.53+124.513+310.093+123.564+310.093+122.837C310.382+120.071+311.186+117.735+312.507+115.829C313.014+115.064+314.725+114.407+317.639+113.86ZM313.714+118.489L314.1+118.489C317.249+117.974+319.667+117.673+321.354+117.587L321.354+117.2C321.135+116.739+320.331+116.274+318.94+115.806C317.417+115.806+315.721+116.571+313.854+118.103L313.714+118.489Z" opacity="1" fill="#000000"/>
<path d="M344.171+112.724C345.96+113.419+346.854+114.591+346.854+116.239C346.854+116.63+345.999+117.212+344.288+117.985C342.218+119.157+341.182+120.017+341.182+120.564L341.182+120.681C341.182+121.009+342.569+121.091+345.343+120.927C347.374+121.747+348.389+122.599+348.389+123.482C348.389+125.466+345.776+127.028+340.55+128.169L339.729+128.169C338.87+128.083+338.44+127.849+338.44+127.466C339.018+126.614+340.468+125.829+342.788+125.11L342.788+124.993L338.44+122.544C337.815+121.849+337.503+121.228+337.503+120.681L337.503+120.212C337.503+118.939+339.139+117.028+342.413+114.482C343.444+113.31+344.03+112.724+344.171+112.724Z" opacity="1" fill="#000000"/>
<path d="M354.366+111.505L354.764+111.505C356.389+111.966+357.303+112.396+357.507+112.794L357.331+113.567L358.526+113.345C362.096+113.345+364.139+114.72+364.655+117.47L364.948+118.126C364.339+122.446+362.475+124.876+359.358+125.415C358.108+125.306+357.659+125.552+358.01+126.153C358.307+128.763+358.132+130.837+357.483+132.376L356.124+132.528C355.272+132.841+354.604+132.419+354.12+131.263C353.667+125.974+353.729+122.278+354.307+120.177L354.132+118.923L353.897+117.974L353.757+117.974L351.87+118.923C351.362+118.923+350.807+118.661+350.206+118.138C349.807+116.567+351.085+115.149+354.038+113.884C354.218+113.884+354.19+113.247+353.956+111.974L354.366+111.505ZM357.237+123.282L359.323+122.403C360.714+119.411+361.413+117.618+361.421+117.024L361.327+116.603C360.749+116.173+360.139+115.958+359.499+115.958L359.323+115.958C357.432+116.114+356.593+116.587+356.803+117.376L357.237+123.282Z" opacity="1" fill="#000000"/>
<path d="M373.796+113.849C376.686+113.849+378.819+115.067+380.194+117.505C381.718+120.216+382.479+121.892+382.479+122.532C382.479+123.228+379.776+124.708+374.37+126.974C372.331+127.661+370.733+128.005+369.577+128.005L369.448+128.005C367.401+128.005+366.378+126.899+366.378+124.689L366.26+124.689C366.26+121.392+368.546+118.614+373.116+116.357L373.116+116.134C373.116+115.915+372.085+115.72+370.022+115.548L369.917+115.442L369.917+115.22C369.917+114.72+371.21+114.263+373.796+113.849ZM370.714+122.532L370.714+122.638C370.714+123.583+371.288+124.118+372.436+124.243L373.221+124.243C375.206+124.243+376.694+123.212+377.686+121.149L377.792+120.353C377.214+118.142+376.452+117.036+375.507+117.036C373.913+117.802+372.354+119.442+370.831+121.958L370.714+122.532Z" opacity="1" fill="#000000"/>
<path d="M385.995+112.466C386.846+112.942+387.335+113.478+387.46+114.071L387.671+115.067L387.8+115.067L390.624+114.317C393.288+114.317+395.315+115.431+396.706+117.657C397.018+118.079+397.221+118.493+397.315+118.899L397.35+119.017L397.163+119.263L394.198+117.657L393.354+117.54C390.659+117.54+389.471+120.876+389.792+127.548C389.471+127.79+388.85+127.911+387.928+127.911C386.1+127.911+385.089+127.458+384.893+126.552L384.8+126.189C385.604+122.806+385.655+119.47+384.952+116.181L384.706+115.067C384.495+114.067+384.925+113.2+385.995+112.466Z" opacity="1" fill="#000000"/>
<path d="M406.128+106.759L406.303+106.759C407.936+107.978+408.803+108.86+408.905+109.407C408.874+110.907+408.671+113.044+408.296+115.817L408.296+116.31C409.319+116.692+410.28+117.134+411.178+117.634C412.382+118.446+413.007+118.974+413.053+119.216L412.983+119.298L412.807+119.298L411.096+119.134L410.745+119.134C409.667+119.134+408.604+119.411+407.557+119.966C407.784+125.232+407.526+127.864+406.784+127.864C406.479+128.2+406.132+128.392+405.741+128.439L405.483+128.439C405.327+128.439+405.135+128.189+404.909+127.689C404.768+124.681+404.534+122.274+404.206+120.47L403.983+120.212L402.26+120.47L401.827+120.47C400.936+120.47+400.034+120.22+399.12+119.72C398.737+117.618+398.815+116.567+399.354+116.567L399.507+116.567C401.085+116.778+402.288+116.884+403.116+116.884L403.292+116.884C404.104+116.884+404.503+116.165+404.487+114.728C404.721+113.446+404.835+111.509+404.827+108.915C405.171+107.478+405.604+106.759+406.128+106.759Z" opacity="1" fill="#000000"/>
</g>
<g opacity="1">
<g opacity="1" vectornator:mask="#Mask">
<clipPath id="ClipPath">
<use xlink:href="#Mask" fill="none" overflow="visible"/>
</clipPath>
<g clip-path="url(#ClipPath)">
<g opacity="1">
<g opacity="1" vectornator:mask="#Mask_2">
<clipPath id="ClipPath_2">
<use xlink:href="#Mask_2" fill="none" overflow="visible"/>
</clipPath>
<g clip-path="url(#ClipPath_2)">
<g opacity="1" vectornator:mask="#Mask_3">
<clipPath id="ClipPath_3">
<use xlink:href="#Mask_3" fill="none" overflow="visible"/>
</clipPath>
<g clip-path="url(#ClipPath_3)">
<g opacity="1" vectornator:mask="#Mask_4">
<clipPath id="ClipPath_4">
<use xlink:href="#Mask_4" fill="none" overflow="visible"/>
</clipPath>
<g clip-path="url(#ClipPath_4)">
<g opacity="1" vectornator:mask="#Mask_5">
<clipPath id="ClipPath_5">
<use xlink:href="#Mask_5" fill="none" overflow="visible"/>
</clipPath>
<g clip-path="url(#ClipPath_5)">
<g opacity="1" vectornator:mask="#Mask_6">
<clipPath id="ClipPath_6">
<use xlink:href="#Mask_6" fill="none" overflow="visible"/>
</clipPath>
<g clip-path="url(#ClipPath_6)">
<g opacity="1" vectornator:mask="#Mask_7">
<clipPath id="ClipPath_7">
<use xlink:href="#Mask_7" fill="none" overflow="visible"/>
</clipPath>
<g clip-path="url(#ClipPath_7)">
<g opacity="1" vectornator:mask="#Mask_8">
<clipPath id="ClipPath_8">
<use xlink:href="#Mask_8" fill="none" overflow="visible"/>
</clipPath>
<g clip-path="url(#ClipPath_8)">
<g opacity="1" vectornator:mask="#Mask_9">
<clipPath id="ClipPath_9">
<use xlink:href="#Mask_9" fill="none" overflow="visible"/>
</clipPath>
<g clip-path="url(#ClipPath_9)">
<g opacity="1" vectornator:mask="#Mask_10">
<clipPath id="ClipPath_10">
<use xlink:href="#Mask_10" fill="none" overflow="visible"/>
</clipPath>
<g clip-path="url(#ClipPath_10)">
<path d="M0.102+121.168C-0.355+124.559+0.023+127.422+1.242+129.77C2.645+132.137+5.223+133.574+8.98+134.082L14.652+134.566C16.199+134.414+18.012+133.75+20.082+132.574L41.113+121.234L62.566+111.043L84.547+101.191L106.387+90.234L110.441+87.785L116.477+83.422L122.516+79.055L126.402+75.766L126.652+73.887L127.227+71.781L127.375+68.535L127.031+64.672C126.969+63.758+126.438+62.684+125.453+61.465C125.18+60.703+124.207+60.117+122.539+59.707L66.75+52.207C62.426+51.621+59.816+50.457+58.906+48.695L58.68+41.855C59.348+36.859+61.484+33.059+65.09+30.453C68.875+27.875+73.547+25.871+79.09+24.438C81.066+23.977+83.324+23.551+85.859+23.168C88.586+22.809+91.969+22.539+96.012+22.355C100.074+21.992+103.074+21.758+104.996+21.652C107.137+21.398+109.766+21.023+112.895+20.539C118.344+19.816+122.797+18.688+126.254+17.16C129.898+15.652+131.953+13.199+132.406+9.812L132.664+5.758C132.832+4.51199+132.023+3.40199+130.242+2.43401L124.328+1.64101L118.449+0.574005C111.875-0.309006+104.113-0.171997+95.156+0.983994C85.855+1.91+76.793+3.871+67.977+6.86301C59.16+9.855+51.324+14.066+44.473+19.508C37.625+24.945+33.68+31.496+32.648+39.172C31.855+45.055+33.25+50.328+36.828+54.988C40.434+59.473+44.984+63.352+50.465+66.633C55.461+69.305+61.34+71.824+68.098+74.184L84.148+78.523L76.246+81.82L64.359+87.031L50.676+92.824L36.988+98.609L25.137+103.555L17.551+106.621L6.258+111.645C2.781+113.355+0.727+116.531+0.102+121.168" opacity="1" fill="#1e3caa"/>
</g>
</g>
</g>
</g>
</g>
</g>
</g>
</g>
</g>
</g>
</g>
</g>
</g>
</g>
</g>
</g>
</g>
</g>
<path d="M167.922+42.379C179.461+44.254+185.234+47.422+185.234+51.879C184.785+73.465+183.523+84.254+181.453+84.254L180.547+85.285L179.672+85.285C176.16+84.703+174.406+81.746+174.406+76.41L173.531+75.738L172.031+75.738L164.109+85.613C159.43+90.156+154.645+92.426+149.75+92.426C141.395+92.426+135.332+87.449+131.562+77.488L131.281+75.363C131.281+69.23+138.32+60.266+152.406+48.473C158.383+44.41+163.555+42.379+167.922+42.379ZM143.766+75.816C143.766+78.535+144.941+79.895+147.297+79.895L148.172+79.895C157.328+79.895+165.914+70.816+173.938+52.66L173.938+51.957L173.078+51.629C166.547+52.348+157.953+58.355+147.297+69.645C144.941+72.855+143.766+74.91+143.766+75.816Z" opacity="1" fill="#1e3caa"/>
<path d="M206.203+29.629C208.441+29.359+209.906+31.074+210.594+34.77C211.039+38.512+207.281+41.473+199.312+43.66C193.633+43.609+190.727+42.859+190.594+41.41C190.238+38.598+195.441+34.672+206.203+29.629ZM202.094+48.223C203.531+48.027+205.328+49.84+207.484+53.66C208.836+54.766+210.039+56.66+211.094+59.348C208.52+72.598+207.566+82.188+208.234+88.113C206.629+90.543+203.738+91.996+199.562+92.473C196.375+92.66+194.645+91.484+194.375+88.941C196.008+84.547+196.328+72.844+195.328+53.832C195.66+50.625+197.914+48.754+202.094+48.223Z" opacity="1" fill="#1e3caa"/>
<path d="M220.125+17.551C221.957+17.113+225.707+21.184+231.375+29.754C233.863+55.234+234.332+71.641+232.781+78.973C231.008+87.09+227.539+92+222.375+93.707L221.078+94.051C219.723+94.352+218.91+93.949+218.641+92.848L220.828+62.832C221.492+57.824+219.961+44.199+216.234+21.957C216.004+20.926+217.301+19.457+220.125+17.551Z" opacity="1" fill="#1e3caa"/>
<path d="M261.949+16.973C266.457+16.172+272.324+19.754+279.543+27.723L280.121+29.098C279.098+32.559+276.457+34.688+272.199+35.488C270.793+35.293+269.973+34.609+269.746+33.441L269.59+28.848C268.121+27.902+267.316+27.344+267.184+27.176C264.496+27.656+263.594+30.387+264.48+35.363L265.184+46.691L266.309+47.066L269.012+46.598L278.215+43.332C281.098+42.801+283.219+44.875+284.574+49.551C284.793+50.738+278.762+53.41+266.48+57.566C265.676+57.672+265.621+65.199+266.309+80.145L266.809+82.801L267.434+84.504C267.621+85.66+265.734+88.051+261.777+91.676L257.918+93.004C256.262+92.898+255.172+91.465+254.652+88.691L252.98+61.426L251.871+61.051L244.762+62.379C242.887+62.715+241.449+61.121+240.449+57.598L240.074+57.348L239.496+56.52C239.246+55+242.66+53.262+249.746+51.301L250.121+51.551L250.496+51.457C252.484+51.105+253.301+49.926+252.949+47.926C251.262+30.363+252.047+21.277+255.309+20.66C258.715+18.422+260.926+17.191+261.949+16.973Z" opacity="1" fill="#1e3caa"/>
<path d="M326.219+42.379C337.758+44.254+343.531+47.422+343.531+51.879C343.082+73.465+341.82+84.254+339.75+84.254L338.844+85.285L337.969+85.285C334.457+84.703+332.703+81.746+332.703+76.41L331.828+75.738L330.328+75.738L322.406+85.613C317.727+90.156+312.941+92.426+308.047+92.426C299.691+92.426+293.629+87.449+289.859+77.488L289.578+75.363C289.578+69.23+296.617+60.266+310.703+48.473C316.68+44.41+321.852+42.379+326.219+42.379ZM302.062+75.816C302.062+78.535+303.238+79.895+305.594+79.895L306.469+79.895C315.625+79.895+324.211+70.816+332.234+52.66L332.234+51.957L331.375+51.629C324.844+52.348+316.25+58.355+305.594+69.645C303.238+72.855+302.062+74.91+302.062+75.816Z" opacity="1" fill="#1e3caa"/>
<path d="M372.219+38.629C378.551+41.098+381.719+45.25+381.719+51.082C381.719+52.469+378.691+54.531+372.641+57.27C365.305+61.426+361.641+64.473+361.641+66.41L361.641+66.816C361.641+67.984+366.551+68.277+376.375+67.691C383.562+70.598+387.156+73.613+387.156+76.738C387.156+83.77+377.898+89.301+359.391+93.332L356.484+93.332C353.441+93.027+351.922+92.203+351.922+90.848C353.973+87.84+359.109+85.059+367.328+82.504L367.328+82.098L351.922+73.41C349.711+70.953+348.609+68.754+348.609+66.816L348.609+65.16C348.609+60.652+354.406+53.887+366+44.863C369.645+40.707+371.719+38.629+372.219+38.629Z" opacity="1" fill="#1e3caa"/>
</g>
</g>
</g>
<path d="M417.945+17.504L418.57+17.504C424.352+21.828+427.422+24.957+427.789+26.895C427.672+32.207+426.953+39.777+425.633+49.598L425.633+51.332C429.258+52.688+432.656+54.25+435.836+56.02C440.094+58.906+442.309+60.777+442.477+61.629L442.227+61.926L441.617+61.926L435.555+61.332L434.305+61.332C430.48+61.332+426.719+62.316+423.023+64.285C423.824+82.934+422.906+92.254+420.273+92.254C419.199+93.449+417.969+94.133+416.586+94.301L415.664+94.301C415.109+94.301+414.434+93.414+413.633+91.645C413.133+80.988+412.305+72.465+411.148+66.066L410.352+65.16L404.258+66.066L402.727+66.066C399.57+66.066+396.371+65.184+393.133+63.41C391.777+55.973+392.055+52.254+393.961+52.254L394.508+52.254C400.09+52.996+404.352+53.363+407.289+53.363L407.914+53.363C410.789+53.363+412.199+50.824+412.148+45.738C412.969+41.199+413.371+34.332+413.352+25.145C414.559+20.051+416.09+17.504+417.945+17.504Z" opacity="1" fill="#1e3caa"/>
</g>
</g>
</svg>
