<svg width="145" height="202" viewBox="0 0 145 202" fill="none" xmlns="http://www.w3.org/2000/svg">
<path d="M54.2669 11.7444C52.7337 11.7444 51.3529 10.6839 51.0053 9.12535C50.6049 7.32069 51.7416 5.53556 53.5443 5.13323C60.3743 3.61373 67.296 2.90866 74.0537 3.01413C75.9013 3.04344 77.374 4.56488 77.3427 6.41251C77.3134 8.26014 75.7627 9.90269 73.9443 9.70153C67.6534 9.61755 61.3117 10.2601 54.9974 11.6644C54.7533 11.719 54.5072 11.7444 54.2669 11.7444Z" fill="#FFE073"/>
<path d="M73.999 201.661C46.1694 201.661 22.7753 194.763 9.81653 182.74C9.31654 182.275 8.97083 181.669 8.82435 181.001C-6.33556 111.635 8.13295 52.7945 51.8295 6.11369C53.097 4.76411 55.2123 4.69769 56.556 5.95744C57.9056 7.21914 57.9759 9.33629 56.7122 10.6839C14.8301 55.4312 0.842065 111.893 15.1328 178.525C27.033 188.99 48.396 194.974 73.999 194.974C75.8467 194.974 77.3447 196.47 77.3447 198.317C77.3447 200.165 75.8467 201.661 73.999 201.661Z" fill="#FFE073"/>
<path d="M73.9991 148.029C68.341 148.029 63.7375 143.428 63.7375 137.768C63.7375 132.112 68.341 127.51 73.9991 127.51C79.6572 127.51 84.2587 132.112 84.2587 137.768C84.2586 143.428 79.6572 148.029 73.9991 148.029ZM73.9991 134.197C71.9971 134.197 70.4288 135.768 70.4288 137.768C70.4288 139.705 72.0635 141.342 73.9991 141.342C75.9346 141.342 77.5693 139.705 77.5693 137.768C77.5693 135.768 76.001 134.197 73.9991 134.197Z" fill="#FFE073"/>
<path d="M93.7311 11.7444C93.4928 11.7444 93.2546 11.7191 93.0124 11.6663C86.4891 10.2406 80.2665 9.59604 74.0537 9.70151C74.0361 9.70346 74.0166 9.70346 73.9971 9.70346C72.1768 9.70346 70.6846 8.24059 70.6553 6.41249C70.6241 4.56487 72.0967 3.04342 73.9443 3.01412C80.6845 2.88912 87.407 3.59419 94.4421 5.13127C96.2467 5.52579 97.3873 7.30701 96.9967 9.11166C96.653 10.6761 95.2702 11.7444 93.7311 11.7444Z" fill="#FFE073"/>
<path d="M73.999 201.661C72.1514 201.661 70.6534 200.165 70.6534 198.317C70.6534 196.47 72.1514 194.974 73.999 194.974C99.4849 194.974 120.848 188.986 132.867 178.517C147.152 111.893 133.168 55.4312 91.2859 10.6839C90.0242 9.33629 90.0945 7.21914 91.4421 5.95744C92.7897 4.69966 94.9108 4.76216 96.1686 6.11369C139.867 52.7985 154.336 111.639 139.176 181.001C139.027 181.673 138.676 182.283 138.168 182.751C125.086 194.771 101.7 201.661 73.999 201.661Z" fill="#FFE073"/>
<path d="M73.9991 191.907C63.7141 191.907 55.347 183.595 55.347 173.373C55.347 163.088 63.7141 154.721 73.9991 154.721C84.2196 154.721 92.5359 163.088 92.5359 173.373C92.5359 183.595 84.2196 191.907 73.9991 191.907ZM73.9991 161.408C67.4035 161.408 62.0383 166.775 62.0383 173.373C62.0383 179.904 67.4035 185.22 73.9991 185.22C80.5322 185.22 85.8485 179.904 85.8485 173.373C85.8485 166.775 80.5322 161.408 73.9991 161.408Z" fill="#FFE073"/>
<path d="M32.3865 160.842C22.164 160.842 13.8477 152.475 13.8477 142.19V132.326C13.8477 122.104 22.164 113.792 32.3865 113.792C42.6714 113.792 51.0404 122.104 51.0404 132.326V142.19C51.0404 152.475 42.6714 160.842 32.3865 160.842ZM32.3865 120.479C25.8534 120.479 20.539 125.795 20.539 132.326V142.19C20.539 148.787 25.8534 154.154 32.3865 154.154C38.984 154.154 44.3491 148.787 44.3491 142.19V132.326C44.3491 125.795 38.984 120.479 32.3865 120.479Z" fill="#FFE073"/>
<path d="M73.9991 118.549C63.7141 118.549 55.347 110.233 55.347 100.013V36.4042C55.347 26.1817 63.7141 17.8654 73.9991 17.8654C84.2196 17.8654 92.5359 26.1817 92.5359 36.4042V100.013C92.5359 110.233 84.2196 118.549 73.9991 118.549ZM73.9991 24.5567C67.5148 24.5567 62.0383 29.9824 62.0383 36.4042V100.013C62.0383 106.546 67.4035 111.862 73.9991 111.862C80.5322 111.862 85.8485 106.546 85.8485 100.013V36.4042C85.8485 29.8711 80.5322 24.5567 73.9991 24.5567Z" fill="#FFE073"/>
<path d="M115.496 160.842C105.274 160.842 96.9615 152.475 96.9615 142.19V132.326C96.9615 122.104 105.274 113.792 115.496 113.792C125.781 113.792 134.148 122.104 134.148 132.326V142.19C134.148 152.475 125.781 160.842 115.496 160.842ZM115.496 120.479C108.965 120.479 103.649 125.795 103.649 132.326V142.19C103.649 148.787 108.965 154.154 115.496 154.154C122.094 154.154 127.461 148.787 127.461 142.19V132.326C127.461 125.795 122.094 120.479 115.496 120.479Z" fill="#FFE073"/>
<path d="M73.9991 182.497C68.466 182.497 63.0207 181.466 57.8158 179.435C56.0951 178.759 55.2455 176.822 55.9174 175.099C56.5873 173.377 58.5423 172.529 60.2493 173.201C69.0441 176.638 78.958 176.638 87.7469 173.201C89.4773 172.533 91.407 173.38 92.0828 175.099C92.7546 176.822 91.9031 178.759 90.1844 179.435C84.9774 181.466 79.5322 182.497 73.9991 182.497Z" fill="#FFE073"/>
<path d="M37.152 160.049C35.945 160.049 34.779 159.396 34.1833 158.248C30.9685 152.068 29.2674 144.986 29.2674 137.768C29.2674 130.264 31.0818 123.092 34.6579 116.456C35.5348 114.831 37.5641 114.225 39.1891 115.096C40.816 115.971 41.4234 118.002 40.5484 119.627C37.5016 125.28 35.9587 131.385 35.9587 137.768C35.9587 143.916 37.3961 149.932 40.1168 155.162C40.9703 156.799 40.3336 158.818 38.6949 159.674C38.2008 159.928 37.6735 160.049 37.152 160.049Z" fill="#FFE073"/>
<path d="M58.6926 102.565C57.345 102.565 56.0755 101.745 55.5677 100.411C54.9095 98.6844 55.7747 96.7508 57.5013 96.0946C68.1144 92.0497 80.1064 92.079 90.407 96.1044C92.1296 96.7763 92.9811 98.7157 92.3093 100.436C91.6335 102.159 89.6843 103.003 87.9773 102.335C79.204 98.9129 68.964 98.8856 59.8841 102.345C59.4915 102.495 59.0891 102.565 58.6926 102.565Z" fill="#FFE073"/>
<path d="M110.731 160.049C110.211 160.049 109.684 159.928 109.192 159.674C107.551 158.818 106.914 156.799 107.766 155.162C110.563 149.791 112.039 143.775 112.039 137.768C112.039 131.381 110.496 125.28 107.45 119.627C106.575 118.002 107.184 115.971 108.809 115.096C110.438 114.225 112.461 114.831 113.34 116.456C116.914 123.092 118.727 130.264 118.727 137.768C118.727 144.846 116.989 151.932 113.703 158.248C113.106 159.392 111.938 160.049 110.731 160.049Z" fill="#FFE073"/>
<path d="M40.5504 101.544H27.8514C26.0037 101.544 24.5057 100.046 24.5057 98.1981C24.5057 96.3505 26.0037 94.8524 27.8514 94.8524H40.5504C42.398 94.8524 43.896 96.3505 43.896 98.1981C43.896 100.046 42.398 101.544 40.5504 101.544Z" fill="#FFE073"/>
<path d="M40.5504 90.7724H34.2009C32.3533 90.7724 30.8553 89.2744 30.8553 87.4268C30.8553 85.5791 32.3533 84.0811 34.2009 84.0811H40.5504C42.398 84.0811 43.8961 85.5791 43.8961 87.4268C43.8961 89.2744 42.398 90.7724 40.5504 90.7724Z" fill="#FFE073"/>
<path d="M120.145 101.544H107.332C105.485 101.544 103.989 100.046 103.989 98.1981C103.989 96.3505 105.485 94.8524 107.332 94.8524H120.145C121.992 94.8524 123.488 96.3505 123.488 98.1981C123.488 100.046 121.992 101.544 120.145 101.544Z" fill="#FFE073"/>
<path d="M113.797 90.7724H107.332C105.485 90.7724 103.989 89.2744 103.989 87.4268C103.989 85.5791 105.485 84.0811 107.332 84.0811H113.797C115.645 84.0811 117.141 85.5791 117.141 87.4268C117.141 89.2744 115.645 90.7724 113.797 90.7724Z" fill="#FFE073"/>
<path d="M51.2669 8.74444C49.7337 8.74444 48.3529 7.68391 48.0053 6.12535C47.6049 4.32069 48.7416 2.53556 50.5443 2.13323C57.3743 0.613732 64.296 -0.0913359 71.0537 0.0141333C72.9013 0.0434358 74.374 1.56488 74.3427 3.41251C74.3134 5.26014 72.7627 6.90269 70.9443 6.70153C64.6534 6.61755 58.3117 7.2601 51.9974 8.66438C51.7533 8.71905 51.5072 8.74444 51.2669 8.74444Z" fill="#063462"/>
<path d="M70.999 198.661C43.1694 198.661 19.7753 191.763 6.81653 179.74C6.31654 179.275 5.97083 178.669 5.82435 178.001C-9.33556 108.635 5.13295 49.7945 48.8295 3.11369C50.097 1.76411 52.2123 1.69769 53.556 2.95744C54.9056 4.21914 54.9759 6.33629 53.7122 7.68393C11.8301 52.4312 -2.15793 108.893 12.1328 175.525C24.033 185.99 45.396 191.974 70.999 191.974C72.8467 191.974 74.3447 193.47 74.3447 195.317C74.3447 197.165 72.8467 198.661 70.999 198.661Z" fill="#063462"/>
<path d="M70.9991 145.029C65.341 145.029 60.7375 140.428 60.7375 134.768C60.7375 129.112 65.341 124.51 70.9991 124.51C76.6572 124.51 81.2587 129.112 81.2587 134.768C81.2586 140.428 76.6572 145.029 70.9991 145.029ZM70.9991 131.197C68.9971 131.197 67.4288 132.768 67.4288 134.768C67.4288 136.705 69.0635 138.342 70.9991 138.342C72.9346 138.342 74.5693 136.705 74.5693 134.768C74.5693 132.768 73.001 131.197 70.9991 131.197Z" fill="#063462"/>
<path d="M90.7311 8.74444C90.4928 8.74444 90.2546 8.71905 90.0124 8.66633C83.4891 7.24058 77.2665 6.59604 71.0537 6.70151C71.0361 6.70346 71.0166 6.70346 70.9971 6.70346C69.1768 6.70346 67.6846 5.24059 67.6553 3.41249C67.6241 1.56487 69.0967 0.043419 70.9443 0.0141165C77.6845 -0.110881 84.407 0.594187 91.4421 2.13127C93.2467 2.52579 94.3873 4.30701 93.9967 6.11166C93.653 7.6761 92.2702 8.74444 90.7311 8.74444Z" fill="#063462"/>
<path d="M70.999 198.661C69.1514 198.661 67.6534 197.165 67.6534 195.317C67.6534 193.47 69.1514 191.974 70.999 191.974C96.4849 191.974 117.848 185.986 129.867 175.517C144.152 108.893 130.168 52.4312 88.2859 7.68393C87.0242 6.33629 87.0945 4.21914 88.4421 2.95744C89.7897 1.69966 91.9108 1.76216 93.1686 3.11369C136.867 49.7985 151.336 108.639 136.176 178.001C136.027 178.673 135.676 179.283 135.168 179.751C122.086 191.771 98.6997 198.661 70.999 198.661Z" fill="#063462"/>
<path d="M70.9991 188.907C60.7141 188.907 52.347 180.595 52.347 170.373C52.347 160.088 60.7141 151.721 70.9991 151.721C81.2196 151.721 89.5359 160.088 89.5359 170.373C89.5359 180.595 81.2196 188.907 70.9991 188.907ZM70.9991 158.408C64.4035 158.408 59.0383 163.775 59.0383 170.373C59.0383 176.904 64.4035 182.22 70.9991 182.22C77.5322 182.22 82.8485 176.904 82.8485 170.373C82.8485 163.775 77.5322 158.408 70.9991 158.408Z" fill="#063462"/>
<path d="M29.3865 157.842C19.164 157.842 10.8477 149.475 10.8477 139.19V129.326C10.8477 119.104 19.164 110.792 29.3865 110.792C39.6714 110.792 48.0404 119.104 48.0404 129.326V139.19C48.0404 149.475 39.6714 157.842 29.3865 157.842ZM29.3865 117.479C22.8534 117.479 17.539 122.795 17.539 129.326V139.19C17.539 145.787 22.8534 151.154 29.3865 151.154C35.984 151.154 41.3491 145.787 41.3491 139.19V129.326C41.3491 122.795 35.984 117.479 29.3865 117.479Z" fill="#063462"/>
<path d="M70.9991 115.549C60.7141 115.549 52.347 107.233 52.347 97.0125V33.4042C52.347 23.1817 60.7141 14.8654 70.9991 14.8654C81.2196 14.8654 89.5359 23.1817 89.5359 33.4042V97.0125C89.5359 107.233 81.2196 115.549 70.9991 115.549ZM70.9991 21.5567C64.5148 21.5567 59.0383 26.9824 59.0383 33.4042V97.0125C59.0383 103.546 64.4035 108.862 70.9991 108.862C77.5322 108.862 82.8485 103.546 82.8485 97.0125V33.4042C82.8485 26.8711 77.5322 21.5567 70.9991 21.5567Z" fill="#063462"/>
<path d="M112.496 157.842C102.274 157.842 93.9615 149.475 93.9615 139.19V129.326C93.9615 119.104 102.274 110.792 112.496 110.792C122.781 110.792 131.148 119.104 131.148 129.326V139.19C131.148 149.475 122.781 157.842 112.496 157.842ZM112.496 117.479C105.965 117.479 100.649 122.795 100.649 129.326V139.19C100.649 145.787 105.965 151.154 112.496 151.154C119.094 151.154 124.461 145.787 124.461 139.19V129.326C124.461 122.795 119.094 117.479 112.496 117.479Z" fill="#063462"/>
<path d="M70.9991 179.497C65.466 179.497 60.0207 178.466 54.8158 176.435C53.0951 175.759 52.2455 173.822 52.9174 172.099C53.5873 170.377 55.5423 169.529 57.2493 170.201C66.0441 173.638 75.958 173.638 84.7469 170.201C86.4773 169.533 88.407 170.38 89.0828 172.099C89.7546 173.822 88.9031 175.759 87.1844 176.435C81.9774 178.466 76.5322 179.497 70.9991 179.497Z" fill="#063462"/>
<path d="M34.152 157.049C32.945 157.049 31.779 156.396 31.1833 155.248C27.9685 149.068 26.2674 141.986 26.2674 134.768C26.2674 127.264 28.0818 120.092 31.6579 113.456C32.5348 111.831 34.5641 111.225 36.1891 112.096C37.816 112.971 38.4234 115.002 37.5484 116.627C34.5016 122.28 32.9587 128.385 32.9587 134.768C32.9587 140.916 34.3961 146.932 37.1168 152.162C37.9703 153.799 37.3336 155.818 35.6949 156.674C35.2008 156.928 34.6735 157.049 34.152 157.049Z" fill="#063462"/>
<path d="M55.6926 99.5652C54.345 99.5652 53.0755 98.7449 52.5677 97.4109C51.9095 95.6844 52.7747 93.7508 54.5013 93.0946C65.1144 89.0497 77.1064 89.079 87.407 93.1044C89.1296 93.7763 89.9811 95.7157 89.3093 97.4363C88.6335 99.159 86.6843 100.003 84.9773 99.3348C76.204 95.9129 65.964 95.8856 56.8841 99.3445C56.4915 99.4949 56.0891 99.5652 55.6926 99.5652Z" fill="#063462"/>
<path d="M107.731 157.049C107.211 157.049 106.684 156.928 106.192 156.674C104.551 155.818 103.914 153.799 104.766 152.162C107.563 146.791 109.039 140.775 109.039 134.768C109.039 128.381 107.496 122.28 104.45 116.627C103.575 115.002 104.184 112.971 105.809 112.096C107.438 111.225 109.461 111.831 110.34 113.456C113.914 120.092 115.727 127.264 115.727 134.768C115.727 141.846 113.989 148.932 110.703 155.248C110.106 156.392 108.938 157.049 107.731 157.049Z" fill="#063462"/>
<path d="M37.5504 98.5437H24.8514C23.0037 98.5437 21.5057 97.0457 21.5057 95.1981C21.5057 93.3505 23.0037 91.8524 24.8514 91.8524H37.5504C39.398 91.8524 40.896 93.3505 40.896 95.1981C40.896 97.0457 39.398 98.5437 37.5504 98.5437Z" fill="#063462"/>
<path d="M37.5504 87.7724H31.2009C29.3533 87.7724 27.8553 86.2744 27.8553 84.4268C27.8553 82.5791 29.3533 81.0811 31.2009 81.0811H37.5504C39.398 81.0811 40.8961 82.5791 40.8961 84.4268C40.8961 86.2744 39.398 87.7724 37.5504 87.7724Z" fill="#063462"/>
<path d="M117.145 98.5437H104.332C102.485 98.5437 100.989 97.0457 100.989 95.1981C100.989 93.3505 102.485 91.8524 104.332 91.8524H117.145C118.992 91.8524 120.488 93.3505 120.488 95.1981C120.488 97.0457 118.992 98.5437 117.145 98.5437Z" fill="#063462"/>
<path d="M110.797 87.7724H104.332C102.485 87.7724 100.989 86.2744 100.989 84.4268C100.989 82.5791 102.485 81.0811 104.332 81.0811H110.797C112.645 81.0811 114.141 82.5791 114.141 84.4268C114.141 86.2744 112.645 87.7724 110.797 87.7724Z" fill="#063462"/>
</svg>
