<svg width="214" height="188" viewBox="0 0 214 188" fill="none" xmlns="http://www.w3.org/2000/svg">
<path d="M207.965 129.414C183.161 139.191 149.363 145.116 118.039 148.605V130.845L195.605 123.31C198.011 123.077 199.768 120.94 199.535 118.537C199.463 117.773 191.759 40.8513 115.988 5.43421C113.883 4.45008 110.773 4.99935 109.791 8.53313C109.508 9.54982 88.8569 111.807 44.1478 129.393C38.9757 131.427 42.122 138.084 45.7028 137.852C45.8433 137.843 109.291 131.695 109.291 131.695V149.527C68.128 153.62 33.3862 153.737 32.7576 153.737C29.4314 153.737 27.4325 157.461 28.9386 160.237L36.757 174.287C33.5953 176.219 31.6025 177.205 27.0169 177.196C16.9318 177.178 13.5207 173.563 8.25389 173.563C5.83985 173.563 3.93527 175.639 4.00169 178.055C4.06767 180.468 6.13079 182.509 8.49298 182.306C9.49005 182.347 16.1237 185.943 26.9055 185.943C34.2175 185.943 38.0605 183.742 42.0436 181.309C43.242 180.576 44.5382 179.782 46.0888 178.973C53.3035 175.19 60.3858 178.682 69.6015 184.04C78.591 189.266 86.3228 185.465 92.5289 182.405C95.1092 181.136 97.5459 179.935 99.936 179.355C104.233 178.304 108.31 180.468 113.032 182.971C117.204 185.181 121.932 187.688 127.368 187.959C127.898 187.987 128.419 188 128.931 188C136.69 188 142.51 185.029 148.148 182.153C149.443 181.491 150.76 180.818 152.132 180.167C156.647 178.025 160.85 179.526 167.332 182.161C168.391 182.593 169.457 183.027 170.529 183.435L171.095 183.653C176.49 185.715 182.567 187.873 189.516 186.67C195.325 185.664 203.725 179.799 208.433 179.885C210.795 179.812 212.822 177.961 212.841 175.546C212.86 173.131 210.916 171.138 208.501 171.138C201.152 171.138 192.111 177.363 187.799 178.094C184.967 178.573 182.171 178.177 179.294 177.295L212.96 136.255C215.849 133.135 212.244 127.728 207.965 129.414ZM117.176 15.8432C173.588 45.7673 187.302 99.4835 190.157 115.052L63.9551 127.31C96.2759 99.4326 112.768 35.399 117.176 15.8432ZM170.612 174.051C164.043 171.382 156.595 168.362 148.375 172.267C146.931 172.953 145.539 173.664 144.17 174.362C138.502 177.253 134.029 179.549 127.806 179.225C124.312 179.05 120.824 177.2 117.129 175.242C111.629 172.327 105.39 169.019 97.8639 170.855C94.5432 171.664 91.555 173.134 88.6653 174.556C82.4588 177.617 78.7148 179.218 73.9968 176.476C66.1544 171.918 55.6032 165.794 44.4521 170.122L40.1557 162.402C64.4585 161.977 142.256 159.318 196.323 142.725L170.612 174.051Z" fill="#FFE073"/>
<path d="M203.965 124.414C179.161 134.191 145.363 140.116 114.039 143.605V125.845L191.605 118.31C194.011 118.077 195.768 115.94 195.535 113.537C195.463 112.773 187.759 35.8513 111.988 0.434213C109.883 -0.549917 106.773 -0.000654976 105.791 3.53313C105.508 4.54982 84.8569 106.807 40.1478 124.393C34.9757 126.427 38.122 133.084 41.7028 132.852C41.8433 132.843 105.291 126.695 105.291 126.695V144.527C64.128 148.62 29.3862 148.737 28.7576 148.737C25.4314 148.737 23.4325 152.461 24.9386 155.237L32.757 169.287C29.5953 171.219 27.6025 172.205 23.0169 172.196C12.9318 172.178 9.52073 168.563 4.25389 168.563C1.83985 168.563 -0.0647285 170.639 0.00168545 173.055C0.0676709 175.468 2.13079 177.509 4.49298 177.306C5.49005 177.347 12.1237 180.943 22.9055 180.943C30.2175 180.943 34.0605 178.742 38.0436 176.309C39.242 175.576 40.5382 174.782 42.0888 173.973C49.3035 170.19 56.3858 173.682 65.6015 179.04C74.591 184.266 82.3228 180.465 88.5289 177.405C91.1092 176.136 93.5459 174.935 95.936 174.355C100.233 173.304 104.31 175.468 109.032 177.971C113.204 180.181 117.932 182.688 123.368 182.959C123.898 182.987 124.419 183 124.931 183C132.69 183 138.51 180.029 144.148 177.153C145.443 176.491 146.76 175.818 148.132 175.167C152.647 173.025 156.85 174.526 163.332 177.161C164.391 177.593 165.457 178.027 166.529 178.435L167.095 178.653C172.49 180.715 178.567 182.873 185.516 181.67C191.325 180.664 199.725 174.799 204.433 174.885C206.795 174.812 208.822 172.961 208.841 170.546C208.86 168.131 206.916 166.138 204.501 166.138C197.152 166.138 188.111 172.363 183.799 173.094C180.967 173.573 178.171 173.177 175.294 172.295L208.96 131.255C211.849 128.135 208.244 122.728 203.965 124.414ZM113.176 10.8432C169.588 40.7673 183.302 94.4835 186.157 110.052L59.9551 122.31C92.2759 94.4326 108.768 30.399 113.176 10.8432ZM166.612 169.051C160.043 166.382 152.595 163.362 144.375 167.267C142.931 167.953 141.539 168.664 140.17 169.362C134.502 172.253 130.029 174.549 123.806 174.225C120.312 174.05 116.824 172.2 113.129 170.242C107.629 167.327 101.39 164.019 93.8639 165.855C90.5432 166.664 87.555 168.134 84.6653 169.556C78.4588 172.617 74.7148 174.218 69.9968 171.476C62.1544 166.918 51.6032 160.794 40.4521 165.122L36.1557 157.402C60.4585 156.977 138.256 154.318 192.323 137.725L166.612 169.051Z" fill="#063462"/>
</svg>
