<svg width="110" height="213" viewBox="0 0 110 213" fill="none" xmlns="http://www.w3.org/2000/svg">
<path d="M93.2107 164.374C94.7294 163.105 96.2481 161.795 97.7044 160.38C104.174 154.118 109.979 147.981 110 141.927C110.02 139.451 109.043 137.183 107.191 135.353C105.735 133.917 103.8 132.69 101.324 132.44C101.948 131.004 102.344 129.486 102.385 127.925C102.469 125.054 101.324 122.371 99.1191 120.186C96.9554 118.043 94.667 116.754 92.2745 116.317C92.7738 115.006 93.0859 113.612 93.0859 112.156C93.1275 109.16 91.9416 106.455 89.57 104.105C88.0304 102.586 86.3869 101.567 84.5978 101.005C87.7392 97.9466 90.8182 94.9508 92.9818 92.7663C94.5214 91.206 96.1441 88.4391 95.0623 84.0702C93.5019 77.7457 86.595 70.7347 83.724 69.8193C81.0194 68.9663 72.4065 68.8623 67.6631 69.3408L63.6063 54.0497C72.9682 43.8765 74.1332 28.1693 66.1236 16.727C59.7159 7.55236 48.8145 2.7882 37.7051 4.2653C36.5817 4.41093 35.6247 5.13908 35.167 6.17929C34.7093 7.2195 34.8341 8.40533 35.4791 9.34152L44.2792 21.9073L39.8687 31.3524L29.4875 32.2677L20.6873 19.702C20.0424 18.7866 18.9605 18.2665 17.8371 18.3289C16.7137 18.4121 15.6943 19.0571 15.1742 20.0557C9.99392 30.0001 10.7637 41.8585 17.1714 51.0123C21.2698 56.8791 27.2406 60.9983 34.1268 62.7667L37.8923 76.9551C34.5013 76.5183 30.4861 77.9329 27.1158 82.9051C20.396 92.8704 13.6347 125.658 12.8441 133.043C12.2408 138.598 8.76648 147.19 5.93711 150.04C5.31298 150.664 4.98012 151.538 5.00092 152.433C5.04253 153.327 5.43781 154.159 6.10354 154.742L48.1904 191.732C48.8145 192.273 49.5635 192.543 50.3333 192.543C51.207 192.543 52.0808 192.19 52.7257 191.482C55.9296 187.946 60.5897 184.95 66.0196 181.787L71.075 200.698C72.9058 207.543 79.1263 212.078 85.9084 212.078C87.2191 212.078 88.5506 211.912 89.882 211.558C93.8348 210.497 97.1635 207.959 99.2023 204.402C101.241 200.844 101.803 196.704 100.742 192.751L93.2107 164.374ZM22.518 47.2676C18.6069 41.6712 17.3794 34.8059 18.9397 28.3566L25.3058 37.448C25.9715 38.3842 27.0742 38.9251 28.2392 38.8211L42.3236 37.5936C43.4679 37.4896 44.4873 36.7823 44.9658 35.742L50.9366 22.9267C51.4151 21.8865 51.311 20.659 50.6453 19.702L44.2792 10.6106C50.8742 11.3387 56.9074 14.8546 60.8186 20.451C67.3927 29.8337 66.082 42.8779 57.7812 50.7835C56.9282 51.5948 56.5745 52.8223 56.8866 53.9457L66.1444 88.8759C62.0252 92.9328 56.3873 97.9466 51.1654 101.629L39.8895 59.2092C39.5775 58.0025 38.5789 57.0871 37.3514 56.8583C31.339 55.7141 26.0548 52.323 22.518 47.2676ZM45.4443 105.145C44.7785 105.478 44.1336 105.79 43.5303 106.019C43.4055 104.562 43.5095 102.191 43.9464 99.4653L45.4443 105.145ZM50.25 184.866L12.7193 151.871C16.0063 146.899 18.7733 138.972 19.335 133.709C20.1672 126.011 26.991 94.7219 32.5457 86.5043C33.6275 84.9232 35.7703 82.4267 38.142 83.6541C39.6399 84.4239 40.8257 86.5667 40.1808 88.2726C38.1628 93.6609 34.9798 106.934 38.7869 111.344C39.8896 112.634 41.5331 113.196 43.1974 112.842C53.7243 110.616 71.3247 93.2864 75.3607 88.5847C76.5257 87.2324 76.3801 85.1936 75.007 84.0286C73.9876 83.1548 72.5937 83.03 71.4703 83.5709L69.3691 75.6653C73.3219 75.3948 80 75.5405 81.6644 75.9357C83.2455 76.8927 88.3217 82.2602 88.9042 86.1298C89.0915 87.3156 88.7586 87.8565 88.4049 88.2102C85.8668 90.7899 81.9972 94.5347 78.2733 98.1546C66.9142 109.181 66.9142 109.181 66.8934 110.845C66.8934 111.719 67.2471 112.551 67.8504 113.175C68.4745 113.799 69.3483 114.195 70.2013 114.111C71.6575 114.091 72.4273 113.258 73.3219 112.301C74.6534 110.866 78.2109 107.08 81.4771 107.017C82.7254 106.955 83.8696 107.537 85.0138 108.682C86.4701 110.117 86.6158 111.303 86.6158 112.052C86.5742 114.59 84.3689 117.44 82.2885 119.625C81.5603 120.269 80.9154 120.914 80.3745 121.518C80.1873 121.684 80.0208 121.851 79.8544 122.017C78.2525 123.515 77.3787 124.347 77.3579 125.907C77.3371 126.781 77.7116 127.676 78.3357 128.3C78.9806 128.945 79.896 129.278 80.7906 129.257C82.3509 129.194 83.1415 128.237 84.0776 127.114C84.3273 126.802 84.6602 126.428 85.0138 126.011C85.5339 125.512 86.1165 124.95 86.7198 124.347C87.8016 123.432 89.0499 122.683 90.3189 122.62C91.6296 122.537 93.0651 123.286 94.5422 124.763C95.8112 126.011 95.9152 127.052 95.8944 127.738C95.7904 131.608 90.2981 136.455 88.2385 138.265C86.803 139.534 85.9292 140.304 85.8876 141.843C85.8668 142.738 86.2205 143.633 86.8446 144.257C87.864 145.276 89.6324 146.004 92.1081 143.653C98.6614 137.495 101.241 138.598 102.593 139.95C103.384 140.741 103.488 141.365 103.488 141.885C103.467 145.734 96.7474 152.225 93.1483 155.72C85.2011 163.417 75.86 168.702 67.6215 173.383C61.1514 177.086 54.931 180.602 50.25 184.866ZM93.6684 201.115C92.4825 203.174 90.5686 204.651 88.2801 205.255C85.9916 205.879 83.5992 205.546 81.5395 204.36C79.4799 203.174 78.0028 201.26 77.3995 198.972L71.8864 178.417C76.9418 175.546 82.3509 172.426 87.6768 168.639L94.563 194.353C95.1663 196.662 94.8542 199.076 93.6684 201.115Z" fill="#FFE073"/>
<path d="M85.9709 191.025C82.8502 191.025 80.3121 193.563 80.3121 196.683C80.3121 199.804 82.8502 202.342 85.9709 202.342C89.0915 202.342 91.6296 199.804 91.6296 196.683C91.6296 193.563 89.0915 191.025 85.9709 191.025ZM85.9709 199.117C84.6394 199.117 83.5368 198.036 83.5368 196.683C83.5368 195.352 84.6186 194.249 85.9709 194.249C87.3023 194.249 88.405 195.331 88.405 196.683C88.405 198.015 87.3023 199.117 85.9709 199.117Z" fill="#FFE073"/>
<path d="M88.2107 160.374C89.7294 159.105 91.2481 157.795 92.7044 156.38C99.1745 150.118 104.979 143.981 105 137.927C105.02 135.451 104.043 133.183 102.191 131.353C100.735 129.917 98.8 128.69 96.3243 128.44C96.9485 127.004 97.3437 125.486 97.3853 123.925C97.4685 121.054 96.3243 118.371 94.1191 116.186C91.9554 114.043 89.667 112.754 87.2745 112.317C87.7738 111.006 88.0859 109.612 88.0859 108.156C88.1275 105.16 86.9416 102.455 84.57 100.105C83.0304 98.5859 81.3869 97.5665 79.5978 97.0048C82.7392 93.9466 85.8182 90.9508 87.9818 88.7663C89.5214 87.206 91.1441 84.4391 90.0623 80.0702C88.5019 73.7457 81.595 66.7347 78.724 65.8193C76.0194 64.9663 67.4065 64.8623 62.6631 65.3408L58.6063 50.0497C67.9682 39.8765 69.1332 24.1693 61.1236 12.727C54.7159 3.55236 43.8145 -1.2118 32.7051 0.2653C31.5817 0.41093 30.6247 1.13908 30.167 2.17929C29.7093 3.2195 29.8341 4.40533 30.4791 5.34152L39.2792 17.9073L34.8687 27.3524L24.4875 28.2677L15.6873 15.702C15.0424 14.7866 13.9605 14.2665 12.8371 14.3289C11.7137 14.4121 10.6943 15.0571 10.1742 16.0557C4.99392 26.0001 5.76368 37.8585 12.1714 47.0123C16.2698 52.8791 22.2406 56.9983 29.1268 58.7667L32.8923 72.9551C29.5013 72.5183 25.4861 73.9329 22.1158 78.9051C15.396 88.8704 8.63466 121.658 7.8441 129.043C7.24078 134.598 3.76648 143.19 0.93711 146.04C0.312984 146.664 -0.0198848 147.538 0.000919422 148.433C0.0425278 149.327 0.437809 150.159 1.10354 150.742L43.1904 187.732C43.8145 188.273 44.5635 188.543 45.3333 188.543C46.207 188.543 47.0808 188.19 47.7257 187.482C50.9296 183.946 55.5897 180.95 61.0196 177.787L66.075 196.698C67.9058 203.543 74.1263 208.078 80.9084 208.078C82.2191 208.078 83.5506 207.912 84.882 207.558C88.8348 206.497 92.1635 203.959 94.2023 200.402C96.2411 196.844 96.8028 192.704 95.7418 188.751L88.2107 160.374ZM17.518 43.2676C13.6069 37.6712 12.3794 30.8059 13.9397 24.3566L20.3058 33.448C20.9715 34.3842 22.0742 34.9251 23.2392 34.8211L37.3236 33.5936C38.4679 33.4896 39.4873 32.7823 39.9658 31.742L45.9366 18.9267C46.4151 17.8865 46.311 16.659 45.6453 15.702L39.2792 6.61058C45.8742 7.33873 51.9074 10.8546 55.8186 16.451C62.3927 25.8337 61.082 38.8779 52.7812 46.7835C51.9282 47.5948 51.5745 48.8223 51.8866 49.9457L61.1444 84.8759C57.0252 88.9328 51.3873 93.9466 46.1654 97.6289L34.8895 55.2092C34.5775 54.0025 33.5789 53.0871 32.3514 52.8583C26.339 51.7141 21.0548 48.323 17.518 43.2676ZM40.4443 101.145C39.7785 101.478 39.1336 101.79 38.5303 102.019C38.4055 100.562 38.5095 98.1906 38.9464 95.4653L40.4443 101.145ZM45.25 180.866L7.71927 147.871C11.0063 142.899 13.7733 134.972 14.335 129.709C15.1672 122.011 21.991 90.7219 27.5457 82.5043C28.6275 80.9232 30.7703 78.4267 33.142 79.6541C34.6399 80.4239 35.8257 82.5667 35.1808 84.2726C33.1628 89.6609 29.9798 102.934 33.7869 107.344C34.8896 108.634 36.5331 109.196 38.1974 108.842C48.7243 106.616 66.3247 89.2864 70.3607 84.5847C71.5257 83.2324 71.3801 81.1936 70.007 80.0286C68.9876 79.1548 67.5937 79.03 66.4703 79.5709L64.3691 71.6653C68.3219 71.3948 75 71.5405 76.6644 71.9357C78.2455 72.8927 83.3217 78.2602 83.9042 82.1298C84.0915 83.3156 83.7586 83.8565 83.4049 84.2102C80.8668 86.7899 76.9972 90.5347 73.2733 94.1546C61.9142 105.181 61.9142 105.181 61.8934 106.845C61.8934 107.719 62.2471 108.551 62.8504 109.175C63.4745 109.799 64.3483 110.195 65.2013 110.111C66.6575 110.091 67.4273 109.258 68.3219 108.301C69.6534 106.866 73.2109 103.08 76.4771 103.017C77.7254 102.955 78.8696 103.537 80.0138 104.682C81.4701 106.117 81.6158 107.303 81.6158 108.052C81.5742 110.59 79.3689 113.44 77.2885 115.625C76.5603 116.269 75.9154 116.914 75.3745 117.518C75.1873 117.684 75.0208 117.851 74.8544 118.017C73.2525 119.515 72.3787 120.347 72.3579 121.907C72.3371 122.781 72.7116 123.676 73.3357 124.3C73.9806 124.945 74.896 125.278 75.7906 125.257C77.3509 125.194 78.1415 124.237 79.0776 123.114C79.3273 122.802 79.6602 122.428 80.0138 122.011C80.5339 121.512 81.1165 120.95 81.7198 120.347C82.8016 119.432 84.0499 118.683 85.3189 118.62C86.6296 118.537 88.0651 119.286 89.5422 120.763C90.8112 122.011 90.9152 123.052 90.8944 123.738C90.7904 127.608 85.2981 132.455 83.2385 134.265C81.803 135.534 80.9292 136.304 80.8876 137.843C80.8668 138.738 81.2205 139.633 81.8446 140.257C82.864 141.276 84.6324 142.004 87.1081 139.653C93.6614 133.495 96.2411 134.598 97.5934 135.95C98.3839 136.741 98.488 137.365 98.488 137.885C98.4671 141.734 91.7474 148.225 88.1483 151.72C80.2011 159.417 70.86 164.702 62.6215 169.383C56.1514 173.086 49.931 176.602 45.25 180.866ZM88.6684 197.115C87.4825 199.174 85.5686 200.651 83.2801 201.255C80.9916 201.879 78.5992 201.546 76.5395 200.36C74.4799 199.174 73.0028 197.26 72.3995 194.972L66.8864 174.417C71.9418 171.546 77.3509 168.426 82.6768 164.639L89.563 190.353C90.1663 192.662 89.8542 195.076 88.6684 197.115Z" fill="#063462"/>
<path d="M80.9709 187.025C77.8502 187.025 75.3121 189.563 75.3121 192.683C75.3121 195.804 77.8502 198.342 80.9709 198.342C84.0915 198.342 86.6296 195.804 86.6296 192.683C86.6296 189.563 84.0915 187.025 80.9709 187.025ZM80.9709 195.117C79.6394 195.117 78.5368 194.036 78.5368 192.683C78.5368 191.352 79.6186 190.249 80.9709 190.249C82.3023 190.249 83.405 191.331 83.405 192.683C83.405 194.015 82.3023 195.117 80.9709 195.117Z" fill="#063462"/>
</svg>
