<svg width="257" height="176" viewBox="0 0 257 176" fill="none" xmlns="http://www.w3.org/2000/svg">
<path d="M254.379 59.1175L131.638 5.27896C131.359 5.27896 131.359 5.27896 131.08 5H130.801H130.522C130.243 5 130.243 5 129.964 5H129.685C129.406 5 129.406 5 129.127 5H128.849C128.57 5 128.57 5 128.291 5.27896L5.54997 59.1175C3.31833 59.9543 2.48146 62.4649 3.31833 64.6966C3.87624 66.3703 5.54997 67.2072 7.22371 67.2072C7.78162 67.2072 8.33953 67.2072 8.89745 66.9282L24.24 60.2333V171.816C24.24 174.047 26.1927 176 28.4244 176H58.2727H120.48H147.539H176.271H201.656H210.304H231.504C233.736 176 235.689 174.047 235.689 171.816V60.2333L251.031 66.9282C251.589 67.2072 252.147 67.2072 252.705 67.2072C254.379 67.2072 255.773 66.3703 256.61 64.6966C257.447 62.4649 256.61 59.9543 254.379 59.1175ZM143.354 119.093H62.457V104.587H143.075V119.093H143.354ZM62.457 127.462H143.075V141.967H62.457V127.462ZM143.354 96.4976H62.457V81.155H143.075V96.4976H143.354ZM62.457 167.352V150.336H143.075V167.352H120.201H62.457ZM227.32 167.352H214.488V118.256C214.488 116.024 212.535 114.072 210.304 114.072H176.271C174.039 114.072 172.087 116.024 172.087 118.256V167.352H151.723V76.9706C151.723 74.739 149.77 72.7863 147.539 72.7863H58.2727C56.041 72.7863 54.0883 74.739 54.0883 76.9706V167.631H32.6087V56.3279L129.964 13.6476L227.32 56.3279V167.352Z" fill="#FFE073"/>
<path d="M110.158 44.8907C110.158 47.1224 112.111 49.0751 114.343 49.0751H143.354C145.586 49.0751 147.538 47.1224 147.538 44.8907C147.538 42.6591 145.586 40.7064 143.354 40.7064H114.343C112.111 40.7064 110.158 42.6591 110.158 44.8907Z" fill="#FFE073"/>
<path d="M251.379 54.1175L128.638 0.278957C128.359 0.278957 128.359 0.278956 128.08 0H127.801H127.522C127.243 0 127.243 0 126.964 0H126.685C126.406 0 126.406 0 126.127 0H125.849C125.57 0 125.57 1.05998e-06 125.291 0.278957L2.54997 54.1175C0.318327 54.9543 -0.518542 57.4649 0.318326 59.6966C0.876238 61.3703 2.54997 62.2072 4.22371 62.2072C4.78162 62.2072 5.33953 62.2072 5.89745 61.9282L21.24 55.2333V166.816C21.24 169.047 23.1927 171 25.4244 171H55.2727H117.48H144.539H173.271H198.656H207.304H228.504C230.736 171 232.689 169.047 232.689 166.816V55.2333L248.031 61.9282C248.589 62.2072 249.147 62.2072 249.705 62.2072C251.379 62.2072 252.773 61.3703 253.61 59.6966C254.447 57.4649 253.61 54.9543 251.379 54.1175ZM140.354 114.093H59.457V99.5873H140.075V114.093H140.354ZM59.457 122.462H140.075V136.967H59.457V122.462ZM140.354 91.4976H59.457V76.155H140.075V91.4976H140.354ZM59.457 162.352V145.336H140.075V162.352H117.201H59.457ZM224.32 162.352H211.488V113.256C211.488 111.024 209.535 109.072 207.304 109.072H173.271C171.039 109.072 169.087 111.024 169.087 113.256V162.352H148.723V71.9706C148.723 69.739 146.77 67.7863 144.539 67.7863H55.2727C53.041 67.7863 51.0883 69.739 51.0883 71.9706V162.631H29.6087V51.3279L126.964 8.64764L224.32 51.3279V162.352Z" fill="#13314E"/>
<path d="M107.158 39.8907C107.158 42.1224 109.111 44.0751 111.343 44.0751H140.354C142.586 44.0751 144.538 42.1224 144.538 39.8907C144.538 37.6591 142.586 35.7064 140.354 35.7064H111.343C109.111 35.7064 107.158 37.6591 107.158 39.8907Z" fill="#13314E"/>
</svg>
