<svg width="224" height="224" viewBox="0 0 224 224" fill="none" xmlns="http://www.w3.org/2000/svg">
<path d="M218.005 107.361H197.934L197.673 105.018C195.848 88.8757 189.592 73.5148 179.427 61.0178L178.123 59.1953L192.199 45.1361C193.242 44.0947 194.024 42.5325 194.024 40.9704C194.024 39.4083 193.502 37.8462 192.199 36.8047L191.156 35.7633C190.114 34.7219 188.55 33.9408 186.986 33.9408C185.422 33.9408 183.858 34.4615 182.815 35.7633L168.739 49.8225L166.915 48.2604C154.142 37.8462 139.024 31.5976 122.863 30.0355L120.517 29.7751V9.72781C120.517 6.60355 117.91 4 114.782 4H113.479C110.351 4 107.744 6.60355 107.744 9.72781V29.7751L105.398 30.0355C89.237 31.5976 73.8578 38.1065 61.346 48.2604L59.2607 49.8225L44.9242 35.7633C43.8815 34.7219 42.3175 33.9408 40.7536 33.9408C39.1896 33.9408 37.6256 34.4615 36.5829 35.7633L35.801 36.8047C33.455 39.1479 33.455 42.7929 35.801 45.1361L49.8768 59.1953L48.3128 61.0178C37.8863 73.7751 31.6303 88.8757 30.0664 105.018L29.8057 107.361H9.7346C6.60663 107.361 4 109.964 4 113.089V114.391C4 117.515 6.60663 120.118 9.7346 120.118H29.8057L30.0664 122.462C31.891 138.604 38.1469 153.964 48.3128 166.462L49.8768 168.284L35.801 182.864C33.455 185.207 33.455 188.852 35.801 191.195L36.8436 192.237C37.8863 193.278 39.4502 194.059 41.0142 194.059C42.5782 194.059 44.1422 193.538 45.1848 192.237L59.2607 178.177L61.0853 179.74C73.8578 190.154 88.9763 196.402 105.137 197.964L107.483 198.225V218.272C107.483 221.396 110.09 224 113.218 224H114.521C117.649 224 120.256 221.396 120.256 218.272V198.225L122.602 197.964C138.763 196.142 154.142 189.893 166.654 179.74L168.479 178.177L182.555 192.237C183.597 193.278 185.161 194.059 186.725 194.059C188.289 194.059 189.853 193.538 190.896 192.237L191.938 191.195C192.981 190.154 193.763 188.592 193.763 187.03C193.763 185.467 193.242 183.905 191.938 182.864L178.123 168.544L179.687 166.722C190.114 153.965 196.37 138.864 197.934 122.722L198.194 120.379H218.265C221.393 120.379 224 117.775 224 114.651V113.349C224 109.964 221.393 107.361 218.005 107.361ZM43.3602 104.497C44.9242 92.2604 49.8768 80.5444 57.436 70.6509L59.2607 68.3077L98.3602 107.361H42.8389L43.3602 104.497ZM59.2607 159.432L57.436 157.089C49.8768 147.195 44.9242 135.479 43.3602 123.243L42.8389 120.379H98.3602L59.2607 159.432ZM107.483 184.947L104.616 184.426C92.3649 182.864 80.6351 177.917 70.7299 170.367L68.3839 168.544L107.483 129.491V184.947ZM107.483 98.2485L68.3839 59.1953L70.7299 57.3728C80.6351 49.8225 92.3649 44.8757 104.616 43.3136L107.483 42.7929V98.2485ZM120.517 42.7929L123.384 43.3136C135.635 44.8757 147.365 49.8225 157.27 57.3728L159.616 59.1953L120.517 98.2485V42.7929ZM114 120.379C110.351 120.379 107.483 117.515 107.483 113.87C107.483 110.225 110.351 107.361 114 107.361C117.649 107.361 120.517 110.225 120.517 113.87C120.517 117.515 117.649 120.379 114 120.379ZM157.27 170.367C147.365 177.917 135.635 182.864 123.384 184.426L120.517 184.947V129.491L159.616 168.544L157.27 170.367ZM184.64 123.243C183.076 135.479 178.123 147.195 170.564 157.089L168.739 159.432L129.64 120.379H184.9L184.64 123.243ZM129.64 107.361L168.739 68.3077L170.564 70.6509C178.123 80.5444 183.076 92.2604 184.64 104.497L185.161 107.361H129.64Z" fill="#FFE073"/>
<path d="M214.005 103.361H193.934L193.673 101.018C191.848 84.8757 185.592 69.5148 175.427 57.0178L174.123 55.1953L188.199 41.1361C189.242 40.0947 190.024 38.5325 190.024 36.9704C190.024 35.4083 189.502 33.8462 188.199 32.8047L187.156 31.7633C186.114 30.7219 184.55 29.9408 182.986 29.9408C181.422 29.9408 179.858 30.4615 178.815 31.7633L164.739 45.8225L162.915 44.2604C150.142 33.8462 135.024 27.5976 118.863 26.0355L116.517 25.7751V5.72781C116.517 2.60355 113.91 0 110.782 0H109.479C106.351 0 103.744 2.60355 103.744 5.72781V25.7751L101.398 26.0355C85.237 27.5976 69.8578 34.1065 57.346 44.2604L55.2607 45.8225L40.9242 31.7633C39.8815 30.7219 38.3175 29.9408 36.7536 29.9408C35.1896 29.9408 33.6256 30.4615 32.5829 31.7633L31.801 32.8047C29.455 35.1479 29.455 38.7929 31.801 41.1361L45.8768 55.1953L44.3128 57.0178C33.8863 69.7751 27.6303 84.8757 26.0664 101.018L25.8057 103.361H5.7346C2.60663 103.361 0 105.964 0 109.089V110.391C0 113.515 2.60663 116.118 5.7346 116.118H25.8057L26.0664 118.462C27.891 134.604 34.1469 149.964 44.3128 162.462L45.8768 164.284L31.801 178.864C29.455 181.207 29.455 184.852 31.801 187.195L32.8436 188.237C33.8863 189.278 35.4502 190.059 37.0142 190.059C38.5782 190.059 40.1422 189.538 41.1848 188.237L55.2607 174.177L57.0853 175.74C69.8578 186.154 84.9763 192.402 101.137 193.964L103.483 194.225V214.272C103.483 217.396 106.09 220 109.218 220H110.521C113.649 220 116.256 217.396 116.256 214.272V194.225L118.602 193.964C134.763 192.142 150.142 185.893 162.654 175.74L164.479 174.177L178.555 188.237C179.597 189.278 181.161 190.059 182.725 190.059C184.289 190.059 185.853 189.538 186.896 188.237L187.938 187.195C188.981 186.154 189.763 184.592 189.763 183.03C189.763 181.467 189.242 179.905 187.938 178.864L174.123 164.544L175.687 162.722C186.114 149.965 192.37 134.864 193.934 118.722L194.194 116.379H214.265C217.393 116.379 220 113.775 220 110.651V109.349C220 105.964 217.393 103.361 214.005 103.361ZM39.3602 100.497C40.9242 88.2604 45.8768 76.5444 53.436 66.6509L55.2607 64.3077L94.3602 103.361H38.8389L39.3602 100.497ZM55.2607 155.432L53.436 153.089C45.8768 143.195 40.9242 131.479 39.3602 119.243L38.8389 116.379H94.3602L55.2607 155.432ZM103.483 180.947L100.616 180.426C88.3649 178.864 76.6351 173.917 66.7299 166.367L64.3839 164.544L103.483 125.491V180.947ZM103.483 94.2485L64.3839 55.1953L66.7299 53.3728C76.6351 45.8225 88.3649 40.8757 100.616 39.3136L103.483 38.7929V94.2485ZM116.517 38.7929L119.384 39.3136C131.635 40.8757 143.365 45.8225 153.27 53.3728L155.616 55.1953L116.517 94.2485V38.7929ZM110 116.379C106.351 116.379 103.483 113.515 103.483 109.87C103.483 106.225 106.351 103.361 110 103.361C113.649 103.361 116.517 106.225 116.517 109.87C116.517 113.515 113.649 116.379 110 116.379ZM153.27 166.367C143.365 173.917 131.635 178.864 119.384 180.426L116.517 180.947V125.491L155.616 164.544L153.27 166.367ZM180.64 119.243C179.076 131.479 174.123 143.195 166.564 153.089L164.739 155.432L125.64 116.379H180.9L180.64 119.243ZM125.64 103.361L164.739 64.3077L166.564 66.6509C174.123 76.5444 179.076 88.2604 180.64 100.497L181.161 103.361H125.64Z" fill="#13314E"/>
</svg>
